<svg xmlns="http://www.w3.org/2000/svg" width="140" height="79"><g fill="#ffffff"><rect width="35" height="15"/><rect width="35" height="15" x="35"/><rect width="35" height="15" x="70"/><rect width="35" height="15" fill="#f7f1e1" x="105"/><rect width="35" height="15" y="15"/><rect width="35" height="15" x="35" y="15"/><rect width="35" height="15" fill="#fffffd" x="70" y="15"/><rect width="35" height="15" fill="#f7e3ba" x="105" y="15"/><rect width="35" height="15" y="30"/><rect width="35" height="15" x="35" y="30"/><rect width="35" height="15" fill="#dbcbb1" x="70" y="30"/><rect width="35" height="15" fill="#f1d2ba" x="105" y="30"/><rect width="35" height="15" y="45"/><rect width="35" height="15" x="35" y="45"/><rect width="35" height="15" fill="#ffe0c4" x="70" y="45"/><rect width="35" height="15" fill="#fffeef" x="105" y="45"/><rect width="35" height="15" y="60"/><rect width="35" height="15" x="35" y="60"/><rect width="35" height="15" fill="#fffaea" x="70" y="60"/><rect width="35" height="15" fill="#fffee1" x="105" y="60"/></g></svg>